<svg width="29" height="28" viewBox="0 0 29 28" fill="none" xmlns="http://www.w3.org/2000/svg">
<path d="M23.1847 15.9538L2.26721 15.9832C1.79649 15.9832 1.39913 15.8212 1.07512 15.4972C0.751893 15.174 0.590281 14.777 0.590282 14.3063C0.590282 13.8356 0.752287 13.4382 1.0763 13.1142C1.39952 12.791 1.79649 12.6294 2.26721 12.6294L23.1847 12.6588L14.2411 3.71517C13.9077 3.38175 13.7405 2.98949 13.7398 2.53838C13.7405 2.08728 13.9077 1.69501 14.2411 1.36159C14.5745 1.02817 14.9668 0.861061 15.4179 0.860276C15.869 0.861061 16.2612 1.02817 16.5947 1.36159L28.3626 13.1295C28.696 13.4629 28.8627 13.8548 28.8627 14.3051C28.8627 14.757 28.696 15.1497 28.3626 15.4831L16.5947 27.251C16.2612 27.5845 15.869 27.7508 15.4179 27.75C14.9668 27.7508 14.5745 27.5845 14.2411 27.251C13.9077 26.9176 13.7413 26.5253 13.7421 26.0742C13.7413 25.6231 13.9077 25.2309 14.2411 24.8974L23.1847 15.9538Z" fill="#111111"/>
</svg>
