<svg width="16" height="16" viewBox="0 0 16 16" fill="none" xmlns="http://www.w3.org/2000/svg">
<path d="M1.93307 5.9168L7.53307 11.5335C7.59974 11.6001 7.67196 11.6472 7.74974 11.6748C7.82752 11.7028 7.91085 11.7168 7.99974 11.7168C8.08863 11.7168 8.17196 11.7028 8.24974 11.6748C8.32752 11.6472 8.39974 11.6001 8.46641 11.5335L14.0831 5.9168C14.2386 5.76124 14.3164 5.5668 14.3164 5.33346C14.3164 5.10013 14.2331 4.90013 14.0664 4.73346C13.8997 4.5668 13.7053 4.48346 13.4831 4.48346C13.2609 4.48346 13.0664 4.5668 12.8997 4.73346L7.99974 9.63346L3.09974 4.73346C2.94418 4.57791 2.75263 4.50013 2.52507 4.50013C2.29707 4.50013 2.09974 4.58346 1.93307 4.75013C1.76641 4.9168 1.68307 5.11124 1.68307 5.33346C1.68307 5.55569 1.76641 5.75013 1.93307 5.9168Z" fill="#58867B"/>
</svg>
