<svg width="16" height="16" viewBox="0 0 16 16" fill="none" xmlns="http://www.w3.org/2000/svg">
<path d="M14 0.5H2C1.175 0.5 0.5075 1.175 0.5075 2L0.5 15.5L3.5 12.5H14C14.825 12.5 15.5 11.825 15.5 11V2C15.5 1.175 14.825 0.5 14 0.5ZM11.75 9.5H4.25C3.8375 9.5 3.5 9.1625 3.5 8.75C3.5 8.3375 3.8375 8 4.25 8H11.75C12.1625 8 12.5 8.3375 12.5 8.75C12.5 9.1625 12.1625 9.5 11.75 9.5ZM11.75 7.25H4.25C3.8375 7.25 3.5 6.9125 3.5 6.5C3.5 6.0875 3.8375 5.75 4.25 5.75H11.75C12.1625 5.75 12.5 6.0875 12.5 6.5C12.5 6.9125 12.1625 7.25 11.75 7.25ZM11.75 5H4.25C3.8375 5 3.5 4.6625 3.5 4.25C3.5 3.8375 3.8375 3.5 4.25 3.5H11.75C12.1625 3.5 12.5 3.8375 12.5 4.25C12.5 4.6625 12.1625 5 11.75 5Z" fill="#89BEB2"/>
</svg>
