<svg width="42" height="42" viewBox="0 0 42 42" fill="none" xmlns="http://www.w3.org/2000/svg">
<path d="M33.7551 19.9903C33.5716 19.0152 32.9981 18.1573 32.167 17.6152C32.8291 16.7058 33.2872 15.664 33.5097 14.5613C33.59 14.1924 33.3683 13.8248 33.0043 13.724L32.4556 13.5652C32.2555 13.506 32.0394 13.5374 31.8644 13.6512C31.6894 13.7651 31.5729 13.95 31.546 14.1572C31.4257 15.0694 31.1803 15.9611 30.8168 16.8066C29.9606 16.3732 28.978 16.2579 28.0448 16.4817C26.601 16.8644 25.352 18.1711 24.2329 20.4739C23.114 22.7768 19.8003 27.9459 16.8977 30.0108C15.1433 31.2598 12.8259 30.9566 11.1871 30.4872H11.1874C10.8393 30.3838 10.4656 30.5331 10.285 30.8481C10.2128 30.9735 10.1729 31.115 10.1695 31.2597C10.1717 31.4749 10.2601 31.6803 10.4148 31.8299C12.2207 33.5292 14.6291 34.4385 17.1071 34.3569C17.6548 34.3583 18.2023 34.3247 18.7457 34.2558C23.0194 33.7144 28.2392 29.9098 30.8233 26.5388C32.4404 24.4308 33.5738 22.6404 33.7616 21.0379V21.0376C33.8133 20.6903 33.8109 20.3372 33.7543 19.9907L33.7551 19.9903ZM32.2608 14.2582L32.8023 14.417C32.5922 15.4213 32.1741 16.3705 31.5748 17.2035C31.5316 17.1817 31.4953 17.1602 31.4593 17.1385L31.4595 17.1387C31.8666 16.2231 32.1366 15.2524 32.2608 14.2582ZM28.2251 17.1748C29.3278 16.9606 30.4695 17.2316 31.3583 17.9183V17.9256C31.3757 17.9466 31.395 17.9659 31.416 17.9833C31.4569 18.0201 31.5067 18.045 31.5606 18.0556C32.3224 18.4979 32.8605 19.2434 33.0404 20.1059C33.0672 20.2681 33.0793 20.4324 33.0766 20.5968C32.94 20.6226 32.8049 20.6565 32.6722 20.6978C32.5296 20.7529 32.3776 20.7798 32.2246 20.7771C32.138 20.7411 32.0297 20.5245 31.9502 20.3657H31.9504C31.8417 20.0865 31.6502 19.8472 31.4018 19.68C31.1139 19.5509 30.7917 19.5204 30.4849 19.5932C30.3346 19.6227 30.1801 19.6227 30.03 19.5932C29.9201 19.459 29.8432 19.3007 29.8062 19.1313C29.7484 18.8439 29.599 18.5828 29.3803 18.3877C29.0905 18.2173 28.7554 18.1392 28.4202 18.1639C28.2887 18.1711 28.1569 18.1566 28.0303 18.1206C27.8903 18.0309 27.8188 17.8651 27.8497 17.7017C27.8611 17.5756 27.8488 17.4482 27.8137 17.3263C27.9459 17.2633 28.0837 17.2125 28.2251 17.1748ZM30.2538 26.0978C29.512 27.0533 28.6831 27.938 27.7777 28.74C27.7139 28.8019 27.628 28.8357 27.5393 28.834C27.3897 28.835 27.2548 28.7436 27.2004 28.6044C27.1461 28.4649 27.183 28.3066 27.294 28.2058C28.1646 27.4313 28.9621 26.5783 29.6763 25.6573C29.7979 25.498 30.0256 25.4671 30.1852 25.5889C30.3447 25.7105 30.3754 25.9382 30.2538 26.0978ZM30.7375 25.1882C30.5381 25.1882 30.3766 25.0265 30.3766 24.8273C30.3766 24.6279 30.5381 24.4662 30.7375 24.4662C30.9369 24.4662 31.0984 24.6279 31.0984 24.8273C31.0984 25.0265 30.9369 25.1882 30.7375 25.1882ZM34.2787 32.3848C34.1375 32.5257 33.9091 32.5257 33.7682 32.3848L33.1907 31.8073C33.0539 31.6657 33.0558 31.4404 33.1951 31.3012C33.3343 31.162 33.5593 31.16 33.701 31.2968L34.2784 31.8743H34.2787C34.4196 32.0154 34.4196 32.2439 34.2787 32.3848ZM32.4832 31.3077C32.6241 31.4486 32.6241 31.6771 32.4832 31.8182L31.9057 32.3957H31.9055C31.7646 32.5366 31.5361 32.5366 31.3952 32.3957C31.2543 32.2548 31.2543 32.0261 31.3952 31.8852L31.9727 31.3077C32.1136 31.1668 32.3423 31.1668 32.4832 31.3077ZM31.3846 30.0227H31.3843C31.3147 29.9553 31.2751 29.863 31.2741 29.7663C31.2734 29.6693 31.3113 29.5763 31.3797 29.5079C31.4484 29.4392 31.5414 29.4013 31.6381 29.402C31.7351 29.403 31.8274 29.4426 31.8948 29.5122L32.4723 30.0897C32.5757 30.1931 32.6067 30.3486 32.5508 30.4837C32.4948 30.6186 32.3628 30.7066 32.2168 30.7063C32.1211 30.7061 32.0295 30.6679 31.9618 30.6002L31.3846 30.0227ZM33.1798 30.5893C33.0389 30.4484 33.0389 30.22 33.1798 30.0791L33.7573 29.5016V29.5014C33.8245 29.4317 33.9171 29.3921 34.0137 29.3911C34.1107 29.3904 34.2037 29.4286 34.2721 29.497C34.3405 29.5654 34.3787 29.6585 34.378 29.7554C34.377 29.8521 34.3374 29.9447 34.2678 30.0119L33.6903 30.5893H33.6901C33.5492 30.7302 33.3207 30.7302 33.1798 30.5893ZM9.9103 16.241C10.0512 16.3819 10.0512 16.6105 9.9103 16.7515L9.62144 17.0403V17.0401C9.4798 17.1769 9.25476 17.1749 9.11553 17.0357C8.9763 16.8965 8.97412 16.6715 9.11094 16.5298L9.39979 16.241C9.54071 16.1 9.76914 16.1 9.9103 16.241ZM11.4263 16.5298C11.496 16.597 11.5356 16.6896 11.5363 16.7863C11.5373 16.8832 11.4991 16.9763 11.4307 17.0447C11.3623 17.1131 11.2692 17.1513 11.1723 17.1503C11.0756 17.1496 10.983 17.1099 10.9158 17.0401L10.627 16.7512V16.7515C10.4861 16.6103 10.4863 16.3816 10.6275 16.2407C10.7686 16.0998 10.9973 16.0998 11.1382 16.241L11.4263 16.5298ZM10.6219 15.5262C10.481 15.3853 10.481 15.1568 10.6219 15.0159L10.9108 14.7271C11.0524 14.5903 11.2775 14.5922 11.4169 14.7314C11.5562 14.8707 11.5581 15.0959 11.4213 15.2376L11.1324 15.5264V15.5262C10.9915 15.6671 10.7631 15.6671 10.6219 15.5262ZM9.10611 15.2376H9.10587C9.03819 15.1699 9 15.078 9 14.9823C9 14.8864 9.03795 14.7945 9.10563 14.7268C9.24655 14.5857 9.47522 14.5854 9.61638 14.7263L9.90523 15.0152C10.0464 15.1561 10.0464 15.3848 9.90547 15.5259C9.76455 15.6671 9.53588 15.6674 9.39472 15.5262L9.10611 15.2376ZM11.9939 22.5715C12.9823 21.3753 13.6543 20.3905 12.6436 19.5191H12.6434C12.538 19.429 12.4935 19.2869 12.5288 19.1527C12.5639 19.0188 12.6726 18.9168 12.8087 18.8902C13.283 18.8348 13.762 18.9347 14.1747 19.1749C14.587 19.4154 14.9102 19.7831 15.0959 20.2231C15.275 20.6697 15.2902 21.1653 15.1384 21.6221C15.0388 22.0891 14.9883 22.3881 15.1896 22.6247C15.3361 22.8227 15.5914 22.907 15.8271 22.8355C16.0533 22.7719 16.2223 22.5831 16.2602 22.3511C16.2711 22.149 16.2406 21.9469 16.1708 21.757C16.056 21.5027 16.0255 21.2182 16.0842 20.9455C16.1427 20.6726 16.2873 20.4258 16.4964 20.2409C16.5834 20.159 16.7057 20.1254 16.8224 20.1512C16.9394 20.1773 17.0356 20.2595 17.0796 20.371C17.2803 20.8798 17.6339 21.3136 18.0917 21.6126C18.4332 21.7678 18.6977 22.054 18.8253 22.4067C18.9202 22.6933 18.8944 23.0061 18.753 23.273C18.6328 23.4796 18.6024 23.7264 18.6686 23.9561C18.6996 23.9957 18.8252 24.0138 19.0295 23.964C19.2944 23.876 19.495 23.6578 19.5601 23.3863C19.6026 23.0924 19.5659 22.7922 19.4537 22.5171C19.3415 22.242 19.1581 22.0018 18.9219 21.8212C18.5395 21.4744 18.2947 21.0016 18.2318 20.4891C18.1692 19.9767 18.2925 19.4587 18.5797 19.0297C18.6776 18.8609 18.7431 18.6755 18.7733 18.4831C18.7063 18.2588 18.6034 18.0471 18.4687 17.8556C17.9282 17.1706 17.7518 16.2665 17.995 15.4285C18.2911 14.7123 18.8799 14.1568 19.6121 13.9031C19.7537 13.8484 19.9144 13.8881 20.0143 14.0024C20.1141 14.1167 20.1317 14.2814 20.0583 14.4143C20.0539 14.4215 19.6324 15.2083 20.0793 15.6164C20.2209 15.7358 20.3938 15.8124 20.5775 15.8373C20.7614 15.8622 20.9483 15.8339 21.1167 15.7563C21.2717 15.6466 21.3887 15.4909 21.451 15.3113C21.5134 15.132 21.518 14.9374 21.4646 14.7551C21.4029 14.3621 21.2956 13.978 21.1448 13.6101C20.8997 13.0525 20.7914 12.4443 20.8286 11.8364C20.824 11.4414 20.9386 11.0544 21.1576 10.7257C21.3766 10.3972 21.6896 10.1425 22.0558 9.9948C22.1835 9.95419 22.3232 9.98755 22.4186 10.0816C22.5139 10.1756 22.5494 10.3148 22.5107 10.4429C22.3853 10.8846 22.423 11.3566 22.6169 11.7729C22.8172 12.0779 23.1407 12.2807 23.5027 12.3278C23.983 12.3578 24.4321 12.5758 24.7521 12.935C24.9472 13.3392 24.9757 13.8038 24.8317 14.2287C24.9187 14.284 25.0229 14.3058 25.1249 14.2901C25.2406 14.2872 25.3451 14.2197 25.3956 14.1153C25.4488 13.8465 25.4123 13.5676 25.2916 13.3213C25.1391 12.971 25.092 12.584 25.1558 12.2074C25.2781 11.7168 25.5706 11.2858 25.981 10.9906C26.3915 10.6955 26.8935 10.5558 27.3975 10.5959C27.5459 10.6027 27.6752 10.6996 27.7233 10.8403C27.7712 10.9812 27.7277 11.1369 27.6141 11.2329C27.4541 11.3839 27.391 11.6114 27.4502 11.8234C27.4906 11.9677 27.5802 12.0068 27.983 12.0767C28.2027 12.1042 28.4171 12.1647 28.6189 12.2558C28.901 12.3987 29.1144 12.6481 29.2123 12.9488C29.3138 13.2877 29.271 13.6534 29.0939 13.9594C29.0508 14.0467 28.9742 14.1127 28.8819 14.1426C28.7893 14.1726 28.6887 14.1639 28.6027 14.1187C28.5166 14.0735 28.4523 13.9954 28.4245 13.9024C28.3967 13.8091 28.4079 13.7087 28.455 13.6239C28.5398 13.4883 28.5657 13.3242 28.5273 13.169C28.4879 13.0522 28.4045 12.9556 28.2947 12.8997C28.156 12.8431 28.0102 12.8054 27.8616 12.7878C27.6213 12.7878 27.3866 12.7143 27.1894 12.577C26.9922 12.4397 26.8418 12.2451 26.7584 12.0196C26.7002 11.8197 26.6912 11.6087 26.7325 11.4047C26.295 11.5623 25.9673 11.9312 25.8619 12.3841C25.8401 12.6278 25.8815 12.8726 25.9825 13.0952C26.1657 13.4958 26.1989 13.9487 26.0756 14.3718C25.9649 14.62 25.7659 14.8182 25.5172 14.9277C25.2685 15.0372 24.9879 15.0503 24.7299 14.9644C24.3202 14.8832 24.0529 14.4866 24.1314 14.0764C24.2182 13.8356 24.2257 13.5733 24.1532 13.3277C24.0667 13.1941 23.72 13.1068 23.3628 13.0324H23.3626C22.7998 12.9463 22.3024 12.6193 22.0002 12.1365C21.838 11.8532 21.7442 11.5356 21.7266 11.2096C21.6214 11.4184 21.5617 11.6473 21.5514 11.8811C21.5199 12.3868 21.613 12.8924 21.8228 13.3539C21.9939 13.7711 22.115 14.2074 22.1837 14.6534C22.2666 14.9826 22.2412 15.3299 22.1112 15.6439C21.9811 15.9577 21.7534 16.2211 21.4617 16.3952C21.1615 16.5419 20.8245 16.5965 20.4931 16.5526C20.162 16.5088 19.8509 16.3681 19.5993 16.1484C19.2788 15.8545 19.1166 15.4259 19.1625 14.9932C18.9464 15.1736 18.7808 15.4068 18.6825 15.6705C18.5198 16.3053 18.6735 16.9796 19.0953 17.481C19.288 17.7532 19.4243 18.0609 19.4968 18.3865C19.5026 18.7198 19.4141 19.0483 19.2411 19.3335C18.9471 19.9586 18.6694 20.5493 19.4359 21.3038H19.4361C19.7733 21.5668 20.0298 21.9194 20.176 22.3211C20.3223 22.7231 20.3527 23.1579 20.2633 23.5764C20.1294 24.0997 19.7272 24.5123 19.2073 24.6592C19.0182 24.7337 18.8108 24.7482 18.6134 24.7006C18.4159 24.6532 18.2377 24.5459 18.1033 24.3936C17.8493 23.9375 17.8548 23.3811 18.1178 22.9303C18.1693 22.8365 18.1785 22.7255 18.1432 22.6247C18.077 22.4577 17.9472 22.3241 17.7821 22.253C17.3893 22.0458 17.0557 21.742 16.8126 21.37C16.8263 21.4234 16.8428 21.4819 16.8616 21.5469C16.9607 21.8302 16.9987 22.1309 16.9735 22.4299C16.9245 22.7717 16.7442 23.0807 16.4708 23.2914C16.1974 23.5022 15.8525 23.5979 15.5097 23.5585C15.1667 23.5189 14.8528 23.347 14.6344 23.0797C14.3028 22.6064 14.2255 22.0002 14.428 21.459C14.5349 21.1617 14.5416 20.8378 14.4476 20.5364C14.2927 20.2016 14.0364 19.9239 13.7154 19.7423C14.2518 20.9589 13.1783 22.2598 12.5489 23.0212C12.3666 23.2262 12.2011 23.4456 12.0543 23.6774C11.6703 24.3825 11.5412 25.1985 11.6891 25.9878C11.837 26.777 12.253 27.491 12.8665 28.009C13.0212 28.1349 13.0444 28.3624 12.9185 28.5171C12.7925 28.6718 12.5648 28.6952 12.4101 28.5693C11.6763 27.9406 11.1776 27.081 10.9966 26.1318C10.8155 25.1826 10.9627 24.2 11.414 23.3453C11.581 23.0695 11.7739 22.8104 11.99 22.5713L11.9939 22.5715ZM13.6492 12.6089C13.8455 13.7641 14.2266 13.9698 14.6685 14.1069C14.756 14.1206 14.8365 14.162 14.8986 14.2251C15.2192 14.6568 15.7195 14.918 16.2566 14.934C16.3438 14.9355 16.4309 14.9263 16.5159 14.9074C16.6506 14.8716 16.7528 14.7617 16.7784 14.6246C16.8041 14.4878 16.7485 14.3481 16.6356 14.2664C16.3426 14.0969 16.1374 13.8088 16.0729 13.4767C16.0083 13.1443 16.0908 12.8003 16.2994 12.5338C17.2155 11.162 16.835 10.5166 15.8113 9.81057C15.6158 9.65539 15.4727 9.44389 15.4011 9.20483C15.3298 8.96577 15.3332 8.71052 15.4113 8.47366C15.4558 8.33782 15.4161 8.18843 15.3098 8.09272C15.2034 7.997 15.0509 7.97307 14.9204 8.03181C14.4326 8.2566 14.0444 8.65301 13.8302 9.14564C13.7401 9.46349 13.7531 9.80187 13.8679 10.1115C13.8953 10.2205 13.9402 10.388 13.9489 10.4796L13.9487 10.4799C13.8138 10.4117 13.6903 10.323 13.5827 10.2169C13.5034 10.1408 13.3944 10.1035 13.2852 10.1159C13.1759 10.1292 13.0787 10.1913 13.021 10.2848C12.8187 10.5261 12.7261 10.8405 12.765 11.1528C12.8042 11.4651 12.9714 11.7469 13.2267 11.9309C13.4389 12.1023 13.5866 12.3408 13.6456 12.6072L13.6492 12.6089ZM14.0449 11.2273L14.0446 11.2271C14.2172 11.2227 14.3801 11.1463 14.4937 11.0163C14.6989 10.6929 14.7275 10.288 14.5696 9.93921C14.5116 9.77459 14.4872 9.60008 14.4974 9.4258C14.5368 9.3308 14.588 9.24113 14.6496 9.1587C14.7055 9.66437 14.9791 10.1205 15.3989 10.4077C16.1693 10.939 16.3619 11.1369 15.6958 12.136C15.3818 12.5856 15.2658 13.1442 15.3745 13.6815C15.2341 13.5539 15.0642 13.4633 14.88 13.4173C14.6634 13.3509 14.4959 13.2982 14.3574 12.4875L14.3571 12.4877C14.2745 12.0744 14.0562 11.7007 13.7371 11.4256C13.5747 11.2625 13.4845 11.1716 13.4802 11.0524C13.6455 11.1641 13.8401 11.2245 14.0395 11.2257L14.0449 11.2273Z" fill="#CF6246"/>
<circle cx="21" cy="21" r="20.5" stroke="#CF6246"/>
</svg>
