<svg width="440" height="458" viewBox="0 0 440 458" fill="none" xmlns="http://www.w3.org/2000/svg">
<path d="M203.504 13.1367C207.837 -4.2581 232.621 -4.25812 236.954 13.1367C240.627 27.8795 260.272 30.9624 268.196 17.9985C277.48 2.80805 300.902 10.1163 299.9 27.8911L299.797 29.7128C298.942 44.8789 316.708 53.6484 328.227 43.7468C341.736 32.1351 361.831 46.1572 355.594 62.8432L354.623 65.4402C349.281 79.7337 363.523 93.5367 377.642 87.7486C394.257 80.9374 409.121 100.589 398.044 114.722L396.396 116.826C386.91 128.929 396.175 146.559 411.524 145.61C429.675 144.488 437.654 168.078 422.547 178.205L421.269 179.062C408.393 187.692 411.622 207.46 426.575 211.546C444.342 216.4 444.342 241.6 426.575 246.454C411.622 250.54 408.393 270.308 421.269 278.939L422.548 279.795C437.654 289.922 429.675 313.512 411.524 312.39C396.175 311.441 386.91 329.071 396.396 341.174L398.044 343.278C409.121 357.411 394.257 377.063 377.642 370.251C363.523 364.463 349.281 378.266 354.623 392.56L355.594 395.157C361.831 411.843 341.736 425.865 328.227 414.253C316.708 404.352 298.942 413.121 299.797 428.287L299.9 430.109C300.902 447.884 277.48 455.192 268.196 440.001C260.272 427.038 240.627 430.121 236.954 444.863C232.621 462.258 207.837 462.258 203.504 444.863C199.831 430.121 180.186 427.038 172.263 440.001C162.978 455.192 139.557 447.884 140.558 430.109L140.661 428.287C141.516 413.121 123.751 404.352 112.231 414.253C98.7221 425.865 78.6273 411.843 84.8643 395.157L85.835 392.56C91.1777 378.266 76.9351 364.463 62.8161 370.251C46.2014 377.063 31.3376 357.411 42.4143 343.278L44.0627 341.174C53.5484 329.071 44.2828 311.441 28.9345 312.39C10.7828 313.512 2.80432 289.922 17.9108 279.795L19.1892 278.938C32.0649 270.308 28.836 250.54 13.8833 246.454C-3.88362 241.6 -3.88363 216.4 13.8833 211.546C28.836 207.46 32.0648 187.692 19.1892 179.061L17.9107 178.205C2.8043 168.078 10.7828 144.488 28.9345 145.61C44.2828 146.559 53.5484 128.929 44.0627 116.826L42.4143 114.722C31.3377 100.589 46.2014 80.9374 62.8161 87.7486C76.9351 93.5367 91.1777 79.7337 85.835 65.4402L84.8643 62.8432C78.6273 46.1572 98.7221 32.1351 112.231 43.7467C123.751 53.6484 141.516 44.8788 140.661 29.7127L140.558 27.891C139.557 10.1162 162.978 2.80807 172.263 17.9986C180.186 30.9624 199.831 27.8795 203.504 13.1367Z" fill="#89BEB2"/>
</svg>
